<svg xmlns="http://www.w3.org/2000/svg" width="690" height="497.7" viewBox="0 0 690 497.7">
  <defs>
    <style>
      .cls-1 {
        fill: #fff;
      }

      .cls-2 {
        fill: #1f2555;
      }

      .cls-3, .cls-6 {
        fill: none;
        stroke-miterlimit: 10;
      }

      .cls-3 {
        stroke: #cacdd6;
        stroke-width: 0.85px;
      }

      .cls-4 {
        fill: #626475;
      }

      .cls-5 {
        fill: #6071f1;
      }

      .cls-6 {
        stroke: #6071f1;
        stroke-width: 3px;
      }
    </style>
  </defs>
  <title>patterns</title>
  <g id="Layer_2" data-name="Layer 2">
    <g id="Content">
      <g>
        <rect class="cls-1" width="690" height="240.77"/>
        <rect class="cls-1" x="0.8" y="257" width="336" height="240.77"/>
        <rect class="cls-1" x="354" y="257" width="336" height="240.77"/>
        <g>
          <path class="cls-2" d="M25.3,29.9l-.8-2.6h-4l-.8,2.6H17.2l3.9-11h2.8l3.9,11ZM24,25.3c-.8-2.3-1.2-3.7-1.3-4a6.4,6.4,0,0,0-.2-.7c-.1.6-.6,2.2-1.4,4.7Z"/>
          <path class="cls-2" d="M33.6,30.1A3,3,0,0,1,31.3,29h-.1a8.3,8.3,0,0,1,.1,1.2v3.4H29V21.5h1.9l.3,1.1h.1a2.7,2.7,0,0,1,2.4-1.2A2.5,2.5,0,0,1,36,22.5a5.1,5.1,0,0,1,.9,3.2,7.3,7.3,0,0,1-.4,2.3,3.7,3.7,0,0,1-1.1,1.5A2.8,2.8,0,0,1,33.6,30.1ZM33,23.2a1.7,1.7,0,0,0-1.3.5,3.5,3.5,0,0,0-.4,1.7v.3a4.1,4.1,0,0,0,.4,1.9,1.5,1.5,0,0,0,1.3.6c1,0,1.5-.8,1.5-2.5a4.4,4.4,0,0,0-.3-1.9A1.4,1.4,0,0,0,33,23.2Z"/>
          <path class="cls-2" d="M43.4,30.1A3,3,0,0,1,41,29h-.1a8.3,8.3,0,0,1,.1,1.2v3.4H38.8V21.5h1.8l.3,1.1H41a2.9,2.9,0,0,1,2.4-1.2,2.8,2.8,0,0,1,2.4,1.1,5.8,5.8,0,0,1,.8,3.2,5.3,5.3,0,0,1-.4,2.3,3,3,0,0,1-1.1,1.5A2.7,2.7,0,0,1,43.4,30.1Zm-.7-6.9a1.4,1.4,0,0,0-1.2.5,3.4,3.4,0,0,0-.5,1.7v.3a4.1,4.1,0,0,0,.4,1.9,1.5,1.5,0,0,0,1.3.6c1,0,1.6-.8,1.6-2.5a4.1,4.1,0,0,0-.4-1.9A1.4,1.4,0,0,0,42.7,23.2Z"/>
          <path class="cls-2" d="M50.8,29.9H48.5V18.2h2.3Z"/>
          <path class="cls-2" d="M53.1,19.3c0-.7.4-1.1,1.2-1.1s1.3.4,1.3,1.1a1.2,1.2,0,0,1-.3.9,1.7,1.7,0,0,1-1,.3A1.1,1.1,0,0,1,53.1,19.3Zm2.4,10.6H53.2V21.5h2.3Z"/>
          <path class="cls-2" d="M61.3,30.1c-2.6,0-3.9-1.5-3.9-4.3a4.5,4.5,0,0,1,1-3.3,3.8,3.8,0,0,1,3.1-1.1,7.5,7.5,0,0,1,2.6.5l-.7,1.8-1-.4h-.9c-1.2,0-1.8.9-1.8,2.5s.6,2.5,1.8,2.5l1.2-.2,1.1-.5v1.9a2.2,2.2,0,0,1-1.1.5Z"/>
          <path class="cls-2" d="M71.1,29.9l-.4-1.1h-.1a3.5,3.5,0,0,1-1.2,1,3.5,3.5,0,0,1-1.6.3,2.9,2.9,0,0,1-1.9-.7,2.6,2.6,0,0,1-.7-2,2.4,2.4,0,0,1,.9-2,6.8,6.8,0,0,1,2.9-.7h1.4v-.4A1.2,1.2,0,0,0,69.1,23a6.4,6.4,0,0,0-2.4.6L66,22.1a6.9,6.9,0,0,1,3.2-.8,4,4,0,0,1,2.6.8,2.7,2.7,0,0,1,.9,2.2v5.6ZM70.4,26h-.9l-1.5.4a1.2,1.2,0,0,0-.4,1c0,.7.3,1,1.1,1a1.7,1.7,0,0,0,1.2-.5,1.3,1.3,0,0,0,.5-1.2Z"/>
          <path class="cls-2" d="M82.8,29.9H80.5V25a2.6,2.6,0,0,0-.3-1.4,1.2,1.2,0,0,0-1-.4c-.7,0-1.2.2-1.4.6a4.2,4.2,0,0,0-.5,2.2v3.9H75V21.5h1.8l.3,1.1h.1a2.4,2.4,0,0,1,1.1-.9,3.3,3.3,0,0,1,1.5-.3,2.6,2.6,0,0,1,2.2.8,2.9,2.9,0,0,1,.8,2.2Z"/>
          <path class="cls-2" d="M88.7,28.2l1.4-.2v1.7a5.6,5.6,0,0,1-2.1.4,2.8,2.8,0,0,1-2-.7,3.3,3.3,0,0,1-.6-2.1V23.2H84.3v-.9l1.3-.8.6-1.8h1.5v1.8H90v1.7H87.7v4.1a.9.9,0,0,0,.3.7C88.1,28.2,88.4,28.2,88.7,28.2Z"/>
        </g>
        <g>
          <path class="cls-2" d="M25.6,288.6l-.8-2.6h-4l-.8,2.6H17.5l3.8-11.1h2.9l3.9,11.1ZM24.2,284,23,280l-.2-.7c-.2.6-.7,2.2-1.4,4.7Z"/>
          <path class="cls-2" d="M33.9,288.7a2.5,2.5,0,0,1-2.3-1.1h-.2c.1.7.2,1.1.2,1.3v3.4H29.3V280.2h1.8l.4,1.1h.1a2.5,2.5,0,0,1,2.3-1.3,2.9,2.9,0,0,1,2.4,1.2,5.6,5.6,0,0,1,.8,3.2,5.9,5.9,0,0,1-.4,2.3,2.8,2.8,0,0,1-1.1,1.5A3.4,3.4,0,0,1,33.9,288.7Zm-.7-6.9a1.2,1.2,0,0,0-1.2.6,2.5,2.5,0,0,0-.4,1.7v.2a3.5,3.5,0,0,0,.4,2,1.3,1.3,0,0,0,1.2.6c1.1,0,1.6-.9,1.6-2.6a3,3,0,0,0-.4-1.8A1.5,1.5,0,0,0,33.2,281.8Z"/>
          <path class="cls-2" d="M43.6,288.7a2.6,2.6,0,0,1-2.3-1.1h-.1a8.5,8.5,0,0,1,.1,1.3v3.4H39V280.2h1.9l.3,1.1h.1a2.5,2.5,0,0,1,2.4-1.3,2.7,2.7,0,0,1,2.3,1.2,4.9,4.9,0,0,1,.8,3.2,5.9,5.9,0,0,1-.4,2.3,2.8,2.8,0,0,1-1.1,1.5A3.1,3.1,0,0,1,43.6,288.7Zm-.7-6.9a1.4,1.4,0,0,0-1.2.6,2.5,2.5,0,0,0-.4,1.7v.2a3.5,3.5,0,0,0,.4,2,1.5,1.5,0,0,0,1.3.6c1,0,1.5-.9,1.5-2.6a3,3,0,0,0-.4-1.8A1.3,1.3,0,0,0,42.9,281.8Z"/>
          <path class="cls-2" d="M51,288.6H48.7V276.9H51Z"/>
          <path class="cls-2" d="M53.3,278c0-.7.4-1.1,1.3-1.1s1.2.4,1.2,1.1a1,1,0,0,1-.3.8,1.2,1.2,0,0,1-.9.3C53.7,279.1,53.3,278.8,53.3,278Zm2.4,10.6H53.4v-8.4h2.3Z"/>
          <path class="cls-2" d="M61.5,288.7c-2.6,0-3.9-1.4-3.9-4.3a4.9,4.9,0,0,1,1.1-3.3,4.1,4.1,0,0,1,3-1.1,5.3,5.3,0,0,1,2.6.6l-.6,1.8-1.1-.4h-.9c-1.2,0-1.8.8-1.8,2.5s.6,2.5,1.8,2.5l1.2-.2a3.4,3.4,0,0,0,1.2-.6v2l-1.2.5Z"/>
          <path class="cls-2" d="M71.3,288.6l-.4-1.2h-.1a2.8,2.8,0,0,1-1.2,1,3.5,3.5,0,0,1-1.6.3,2.5,2.5,0,0,1-1.9-.7,2.7,2.7,0,0,1-.6-1.9,2.3,2.3,0,0,1,.9-2,5,5,0,0,1,2.8-.7h1.5V283a1.2,1.2,0,0,0-1.3-1.3,6,6,0,0,0-2.4.6l-.8-1.5a7.2,7.2,0,0,1,3.2-.8,3.8,3.8,0,0,1,2.6.7,2.9,2.9,0,0,1,.9,2.3v5.6Zm-.6-3.9h-.9a2.1,2.1,0,0,0-1.5.4,1.1,1.1,0,0,0-.5,1c0,.6.4.9,1.1.9a1.8,1.8,0,0,0,1.3-.4,1.7,1.7,0,0,0,.5-1.2Z"/>
          <path class="cls-2" d="M83,288.6H80.7v-4.9a2.6,2.6,0,0,0-.3-1.4,1.1,1.1,0,0,0-1-.5,1.7,1.7,0,0,0-1.4.7,3.7,3.7,0,0,0-.4,2.1v4H75.3v-8.4H77l.3,1h.2a2.2,2.2,0,0,1,1-.9,4.1,4.1,0,0,1,1.6-.3,3.1,3.1,0,0,1,2.2.8,3.2,3.2,0,0,1,.7,2.3Z"/>
          <path class="cls-2" d="M88.9,286.9l1.5-.3v1.7a4.6,4.6,0,0,1-2.1.4,2.3,2.3,0,0,1-2-.7,2.5,2.5,0,0,1-.7-2.1v-4H84.5v-1l1.3-.7.7-1.8h1.4v1.8h2.4v1.7H87.9v4a1,1,0,0,0,.3.8Z"/>
        </g>
        <g>
          <rect class="cls-3" x="17.2" y="69.2" width="312.6" height="27.73" rx="3"/>
          <g>
            <path class="cls-4" d="M24.8,62H23.1V54.1h4.6v1.4H24.8v2h2.7v1.4H24.8Z"/>
            <path class="cls-4" d="M29,54.4c0-.5.3-.8.9-.8s.9.3.9.8a.7.7,0,0,1-.9.8C29.3,55.2,29,55,29,54.4ZM30.7,62H29.1V56h1.6Z"/>
            <path class="cls-4" d="M35.8,55.9h.6v1.6h-.5a2.1,2.1,0,0,0-1.2.4,1.7,1.7,0,0,0-.5,1.2v3H32.5V56h1.2l.3,1h0a3,3,0,0,1,.8-.8A1.9,1.9,0,0,1,35.8,55.9Z"/>
            <path class="cls-4" d="M41.7,60.2a1.9,1.9,0,0,1-.6,1.5,3.4,3.4,0,0,1-2,.5H38l-.9-.3V60.4l1.1.4h1c.6,0,.9-.1.9-.5a.4.4,0,0,0-.1-.3l-.4-.3-.8-.3-1-.6a.8.8,0,0,1-.5-.5,2.4,2.4,0,0,1-.2-.8,1.4,1.4,0,0,1,.7-1.3,2.9,2.9,0,0,1,1.7-.4,5.4,5.4,0,0,1,2.2.4l-.5,1.2-.9-.3h-.8c-.5,0-.7.1-.7.4a.8.8,0,0,0,.2.4l1,.5a2.3,2.3,0,0,1,1.1.5l.5.6A1.5,1.5,0,0,1,41.7,60.2Z"/>
            <path class="cls-4" d="M45.6,60.8a2,2,0,0,0,1-.2v1.3a3.3,3.3,0,0,1-1.5.3,1.8,1.8,0,0,1-1.4-.5,2.5,2.5,0,0,1-.5-1.6V57.2h-.8v-.7l.9-.5.5-1.3h1.1V56h1.7v1.2H44.9v2.9c0,.3,0,.5.2.6Z"/>
            <path class="cls-4" d="M56.3,62H54.7V58.5a1.5,1.5,0,0,0-.3-1,.8.8,0,0,0-.7-.3c-.5,0-.8.1-1,.5a2.8,2.8,0,0,0-.3,1.5V62H50.7V56H52l.2.8h.1a1.4,1.4,0,0,1,.8-.7,2,2,0,0,1,1.1-.2,2.5,2.5,0,0,1,1.6.5,2.9,2.9,0,0,1,.5,1.7Z"/>
            <path class="cls-4" d="M61.9,62l-.4-.8h0a1.8,1.8,0,0,1-.9.7,1.8,1.8,0,0,1-1.1.3,2.2,2.2,0,0,1-1.4-.5,2.5,2.5,0,0,1-.5-1.5,1.5,1.5,0,0,1,.7-1.4,3.4,3.4,0,0,1,2-.5h1.1V58c0-.6-.3-.9-1-.9a4.5,4.5,0,0,0-1.7.4l-.5-1.1a4.6,4.6,0,0,1,2.3-.5,2.9,2.9,0,0,1,1.9.5A2,2,0,0,1,63,58v4Zm-.5-2.8h-.7l-1,.2a.8.8,0,0,0-.4.7c0,.5.3.7.8.7a1.2,1.2,0,0,0,.9-.3,1,1,0,0,0,.4-.9Z"/>
            <path class="cls-4" d="M70.1,62H68.5V58.5a2.5,2.5,0,0,0-.2-1,.9.9,0,0,0-.7-.3.9.9,0,0,0-.9.5,2.8,2.8,0,0,0-.3,1.5V62H64.7V56H66l.2.8h.1a2.3,2.3,0,0,1,.7-.7,2,2,0,0,1,1.1-.2,1.8,1.8,0,0,1,1.8.9H70a2.7,2.7,0,0,1,.8-.7,1.6,1.6,0,0,1,1-.2,2.1,2.1,0,0,1,1.6.5,2.6,2.6,0,0,1,.5,1.7V62H72.3V58.5a1.5,1.5,0,0,0-.3-1,.6.6,0,0,0-.6-.3,1.2,1.2,0,0,0-1,.4,2.6,2.6,0,0,0-.3,1.4Z"/>
            <path class="cls-4" d="M78.4,62.2a2.9,2.9,0,0,1-2.3-.9,2.7,2.7,0,0,1-.8-2.2,3.4,3.4,0,0,1,.7-2.4,2.5,2.5,0,0,1,2.1-.8,2.6,2.6,0,0,1,2,.7,2.7,2.7,0,0,1,.7,2v.8H76.9a1.6,1.6,0,0,0,.4,1.1,1.5,1.5,0,0,0,1.1.4h1.1l1-.4v1.3a1.6,1.6,0,0,1-.9.3ZM78.1,57A1.2,1.2,0,0,0,77,58.3h2.3a1.2,1.2,0,0,0-.3-.9A1.3,1.3,0,0,0,78.1,57Z"/>
          </g>
        </g>
        <g>
          <rect class="cls-3" x="17.5" y="324.9" width="312.6" height="27.73" rx="3"/>
          <g>
            <path class="cls-4" d="M25,317.8H23.4v-8h4.5v1.4H25v2.1h2.7v1.3H25Z"/>
            <path class="cls-4" d="M29.3,310.1c0-.5.2-.8.8-.8s.9.3.9.8,0,.5-.2.6-.4.2-.7.2S29.3,310.7,29.3,310.1Zm1.7,7.7H29.3v-6.1H31Z"/>
            <path class="cls-4" d="M36.1,311.6h.5v1.6H36a2.1,2.1,0,0,0-1.2.4,1.6,1.6,0,0,0-.4,1.2v3.1H32.7v-6.1H34l.2,1h.1a2.7,2.7,0,0,1,.7-.8A2.3,2.3,0,0,1,36.1,311.6Z"/>
            <path class="cls-4" d="M42,316a1.5,1.5,0,0,1-.7,1.4,3.3,3.3,0,0,1-1.9.5H38.3l-.9-.3v-1.4l1,.4,1,.2q.9,0,.9-.6a.4.4,0,0,0-.1-.3l-.4-.3-.8-.3-1-.6-.5-.5a1.9,1.9,0,0,1-.1-.8A1.5,1.5,0,0,1,38,312a3,3,0,0,1,1.8-.4,4.1,4.1,0,0,1,2.1.5l-.5,1.2-.8-.4h-.8c-.5,0-.8.1-.8.4s.1.3.3.4l1,.5a3,3,0,0,1,1,.5,1.3,1.3,0,0,1,.5.6A1.9,1.9,0,0,1,42,316Z"/>
            <path class="cls-4" d="M45.8,316.5h1.1v1.2a4.1,4.1,0,0,1-1.6.3,2,2,0,0,1-1.4-.5,2.5,2.5,0,0,1-.5-1.5v-3h-.7v-.7l.9-.5.4-1.3h1.1v1.3h1.7v1.2H45.1v3a.8.8,0,0,0,.2.5Z"/>
            <path class="cls-4" d="M56.6,317.8H54.9v-3.6a3,3,0,0,0-.2-1,1,1,0,0,0-.8-.3,1.2,1.2,0,0,0-1,.5,2.8,2.8,0,0,0-.3,1.5v2.9H51v-6.1h1.2l.3.8h0a2.7,2.7,0,0,1,.8-.7l1.1-.2a2.1,2.1,0,0,1,1.6.6,2,2,0,0,1,.6,1.6Z"/>
            <path class="cls-4" d="M62.1,317.8l-.3-.9h-.1a2,2,0,0,1-.8.8l-1.2.2a1.9,1.9,0,0,1-1.3-.5,1.8,1.8,0,0,1-.5-1.5,1.7,1.7,0,0,1,.6-1.4,5.4,5.4,0,0,1,2.1-.5h1v-.3a.8.8,0,0,0-.9-.9,3.8,3.8,0,0,0-1.7.4l-.6-1.1a5.9,5.9,0,0,1,2.3-.5,3.1,3.1,0,0,1,1.9.5,2.2,2.2,0,0,1,.7,1.6v4.1Zm-.5-2.8H61l-1.1.2a1,1,0,0,0-.3.8c0,.4.2.7.8.7a1.8,1.8,0,0,0,.9-.4,1.2,1.2,0,0,0,.3-.9Z"/>
            <path class="cls-4" d="M70.4,317.8H68.7v-3.6a1.6,1.6,0,0,0-.2-1,.8.8,0,0,0-.7-.3,1.1,1.1,0,0,0-.9.5,2.8,2.8,0,0,0-.3,1.5v2.9H65v-6.1h1.2l.2.8h.1a2.3,2.3,0,0,1,.7-.7l1.1-.2a1.8,1.8,0,0,1,1.8.9h.2a2.3,2.3,0,0,1,.7-.7l1.1-.2a2.1,2.1,0,0,1,1.5.5,2.2,2.2,0,0,1,.6,1.7v4H72.5v-3.6a3,3,0,0,0-.2-1,.9.9,0,0,0-.7-.3,1.3,1.3,0,0,0-.9.4,2.6,2.6,0,0,0-.3,1.4Z"/>
            <path class="cls-4" d="M78.6,317.9a2.8,2.8,0,0,1-3.1-3.1,3.2,3.2,0,0,1,.8-2.4,2.9,2.9,0,0,1,2.1-.8,2.7,2.7,0,0,1,2,.7,3.2,3.2,0,0,1,.7,2v.8H77.2a1.4,1.4,0,0,0,1.5,1.5h1l1-.3v1.2l-.9.4Zm-.2-5.1a1.2,1.2,0,0,0-.9.3,1.9,1.9,0,0,0-.3.9h2.3a1.2,1.2,0,0,0-.3-.9A1.1,1.1,0,0,0,78.4,312.8Z"/>
          </g>
        </g>
        <g>
          <rect class="cls-3" x="17.2" y="132.2" width="312.6" height="27.73" rx="3"/>
          <g>
            <path class="cls-4" d="M28,125.1l-.6-1.9H24.5l-.6,1.9H22.1l2.8-7.9H27l2.8,7.9Zm-1-3.3c-.5-1.7-.8-2.7-.9-2.9s-.1-.4-.2-.5-.4,1.6-1,3.4Z"/>
            <path class="cls-4" d="M32.6,125.2a2.1,2.1,0,0,1-1.7-.8,3.9,3.9,0,0,1-.6-2.3,3.7,3.7,0,0,1,.6-2.3,2,2,0,0,1,1.7-.9,2.1,2.1,0,0,1,1.8.9h0a4.9,4.9,0,0,1-.1-1.2v-1.9h1.6v8.4H34.7l-.3-.8h-.1A2,2,0,0,1,32.6,125.2Zm.5-1.3a1.1,1.1,0,0,0,1-.4,1.7,1.7,0,0,0,.3-1.2v-.2a2.4,2.4,0,0,0-.3-1.4,1.1,1.1,0,0,0-1-.4.8.8,0,0,0-.8.4,2.9,2.9,0,0,0-.4,1.4,2.6,2.6,0,0,0,.4,1.4A1.2,1.2,0,0,0,33.1,123.9Z"/>
            <path class="cls-4" d="M39.6,125.2a2.1,2.1,0,0,1-1.7-.8,3.9,3.9,0,0,1-.6-2.3,3.7,3.7,0,0,1,.6-2.3,2,2,0,0,1,1.7-.9,2,2,0,0,1,1.8.9h0a4.9,4.9,0,0,1-.1-1.2v-1.9H43v8.4H41.7l-.3-.8h-.1A1.9,1.9,0,0,1,39.6,125.2Zm.6-1.3a1,1,0,0,0,.9-.4,1.7,1.7,0,0,0,.3-1.2v-.2a2.4,2.4,0,0,0-.3-1.4,1.1,1.1,0,0,0-1-.4.9.9,0,0,0-.8.4,2.9,2.9,0,0,0-.3,1.4,2.6,2.6,0,0,0,.3,1.4A1.3,1.3,0,0,0,40.2,123.9Z"/>
            <path class="cls-4" d="M48.1,118.9h.5v1.5H48a1.6,1.6,0,0,0-1.2.4,1.4,1.4,0,0,0-.5,1.1v3.1H44.7V119h1.2l.3,1.1h.1a3.1,3.1,0,0,1,.7-.9A2,2,0,0,1,48.1,118.9Z"/>
            <path class="cls-4" d="M52.5,125.2a3.2,3.2,0,0,1-2.3-.8,2.8,2.8,0,0,1-.8-2.3,3.2,3.2,0,0,1,.7-2.3,2.6,2.6,0,0,1,2.1-.9,2.5,2.5,0,0,1,2,.8,2.6,2.6,0,0,1,.7,2v.8H51a1.9,1.9,0,0,0,.5,1.1,1.2,1.2,0,0,0,1,.4h1.1l1-.4v1.3l-.9.3Zm-.3-5.1a1.1,1.1,0,0,0-.8.3,1.7,1.7,0,0,0-.3,1h2.3a1.7,1.7,0,0,0-.3-1A1.2,1.2,0,0,0,52.2,120.1Z"/>
            <path class="cls-4" d="M60.5,123.3a1.7,1.7,0,0,1-.6,1.4,3,3,0,0,1-2,.5H56.8l-.9-.2v-1.4l1.1.4h1c.6,0,.9-.2.9-.5v-.3l-.4-.3-.8-.4-1.1-.5-.4-.6a1.9,1.9,0,0,1-.2-.8,1.4,1.4,0,0,1,.6-1.2,3.5,3.5,0,0,1,1.8-.5,5.4,5.4,0,0,1,2.2.5l-.5,1.2-.9-.3h-.8c-.5,0-.7.1-.7.4s0,.2.2.3l1,.5,1.1.6a1.2,1.2,0,0,1,.5.5A2.2,2.2,0,0,1,60.5,123.3Z"/>
            <path class="cls-4" d="M66,123.3a1.7,1.7,0,0,1-.6,1.4,2.8,2.8,0,0,1-2,.5H62.3l-.9-.2v-1.4l1.1.4h1c.6,0,.9-.2.9-.5a.4.4,0,0,0-.1-.3l-.4-.3-.8-.4a3,3,0,0,1-1-.5,1.3,1.3,0,0,1-.5-.6,1.9,1.9,0,0,1-.2-.8,1.3,1.3,0,0,1,.7-1.2,2.9,2.9,0,0,1,1.7-.5,5.4,5.4,0,0,1,2.2.5l-.5,1.2-.9-.3h-.8c-.5,0-.7.1-.7.4s.1.2.2.3l1,.5,1.1.6.5.5A2.2,2.2,0,0,1,66,123.3Z"/>
          </g>
        </g>
        <g>
          <rect class="cls-3" x="17.2" y="195.6" width="312.6" height="27.73" rx="3"/>
          <g>
            <path class="cls-4" d="M28.6,183a2.6,2.6,0,0,1-.8,2,3.7,3.7,0,0,1-2.3.6h-.7v2.9H23.1v-8h2.5a3.4,3.4,0,0,1,2.2.7A2.2,2.2,0,0,1,28.6,183Zm-3.8,1.3h.5a1.7,1.7,0,0,0,1.2-.3,1,1,0,0,0,.4-.9,1.2,1.2,0,0,0-.3-.9,1.5,1.5,0,0,0-1-.3h-.8Z"/>
            <path class="cls-4" d="M33.3,182.3h.6v1.6h-.5a1.9,1.9,0,0,0-1.2.4,1.7,1.7,0,0,0-.5,1.2v3.1H30v-6.1h1.2l.3,1h0l.8-.8A1.9,1.9,0,0,1,33.3,182.3Z"/>
            <path class="cls-4" d="M40.5,185.4a3.2,3.2,0,0,1-.8,2.3,2.7,2.7,0,0,1-2.2.9,4.2,4.2,0,0,1-1.5-.4,2.7,2.7,0,0,1-1-1.1,3.1,3.1,0,0,1-.4-1.7,3.4,3.4,0,0,1,.8-2.3,2.9,2.9,0,0,1,2.2-.8,2.4,2.4,0,0,1,1.5.4,1.8,1.8,0,0,1,1,1.1A2.7,2.7,0,0,1,40.5,185.4Zm-4.2,0a2.6,2.6,0,0,0,.3,1.4,1.1,1.1,0,0,0,1,.4,1,1,0,0,0,.9-.4,2.6,2.6,0,0,0,.3-1.4,2.3,2.3,0,0,0-.3-1.3,1.1,1.1,0,0,0-.9-.5,1.1,1.1,0,0,0-1,.5A2.3,2.3,0,0,0,36.3,185.4Z"/>
            <path class="cls-4" d="M43.3,188.5,41,182.4h1.7l1.2,3.5a5,5,0,0,1,.2,1.2h.1a6,6,0,0,1,.2-1.2l1.2-3.5h1.7L45,188.5Z"/>
            <path class="cls-4" d="M48.1,180.8c0-.5.3-.8.9-.8s.9.3.9.8a.8.8,0,0,1-.2.6.9.9,0,0,1-.7.3A.8.8,0,0,1,48.1,180.8Zm1.7,7.7H48.2v-6.1h1.6Z"/>
            <path class="cls-4" d="M57.2,188.5H55.5v-3.6a3,3,0,0,0-.2-1,1,1,0,0,0-.8-.3,1.2,1.2,0,0,0-1,.5,2.8,2.8,0,0,0-.3,1.5v2.9H51.6v-6.1h1.2l.3.8h0a2.7,2.7,0,0,1,.8-.7l1.1-.2a2.1,2.1,0,0,1,1.6.6,2,2,0,0,1,.6,1.6Z"/>
            <path class="cls-4" d="M61.3,188.6c-1.9,0-2.8-1.1-2.8-3.1a3.5,3.5,0,0,1,.8-2.4,2.9,2.9,0,0,1,2.2-.8,4.1,4.1,0,0,1,1.9.4l-.5,1.3-.8-.3h-.6c-.9,0-1.3.6-1.3,1.9s.4,1.7,1.3,1.7h.9l.8-.4v1.4l-.8.4Z"/>
            <path class="cls-4" d="M67.3,188.6a2.8,2.8,0,0,1-3.1-3.1,3.6,3.6,0,0,1,.8-2.4,2.9,2.9,0,0,1,2.1-.8,2.7,2.7,0,0,1,2,.7,3.2,3.2,0,0,1,.7,2v.9H65.9a1.5,1.5,0,0,0,.4,1.1,1.8,1.8,0,0,0,1.1.3h1l1-.3v1.2a2.5,2.5,0,0,1-.9.4Zm-.2-5.1a1,1,0,0,0-.8.3,1.3,1.3,0,0,0-.4,1h2.3a1.3,1.3,0,0,0-.3-1A1.1,1.1,0,0,0,67.1,183.5Z"/>
          </g>
        </g>
        <g>
          <rect class="cls-3" x="360.1" y="69.2" width="312.6" height="27.73" rx="3"/>
          <g>
            <path class="cls-4" d="M365.9,62V54.1h1.7v6.6h3.2V62Z"/>
            <path class="cls-4" d="M375.9,62l-.3-.8h0a1.8,1.8,0,0,1-.9.7,2,2,0,0,1-1.1.3,1.8,1.8,0,0,1-1.9-2,1.5,1.5,0,0,1,.7-1.4,3.4,3.4,0,0,1,2-.5h1V58a.8.8,0,0,0-.9-.9,3.8,3.8,0,0,0-1.7.4l-.6-1.1a4.7,4.7,0,0,1,2.4-.5,2.4,2.4,0,0,1,1.8.5,1.8,1.8,0,0,1,.7,1.6v4Zm-.5-2.8h-.6l-1.1.2a.9.9,0,0,0-.3.7c0,.5.2.7.8.7a1.1,1.1,0,0,0,1.2-1.2Z"/>
            <path class="cls-4" d="M383,60.2a1.9,1.9,0,0,1-.6,1.5,3.7,3.7,0,0,1-2,.5h-1.1l-.9-.3V60.4l1.1.4h1c.6,0,.9-.1.9-.5s-.1-.2-.1-.3l-.4-.3-.8-.3-1.1-.6a1,1,0,0,1-.4-.5,2.4,2.4,0,0,1-.2-.8,1.5,1.5,0,0,1,.6-1.3,3.4,3.4,0,0,1,1.8-.4,4.9,4.9,0,0,1,2.1.4l-.5,1.2-.8-.3h-.8c-.5,0-.7.1-.7.4a.4.4,0,0,0,.2.4l1,.5a2.8,2.8,0,0,1,1.1.5l.5.6A1.5,1.5,0,0,1,383,60.2Z"/>
            <path class="cls-4" d="M386.9,60.8a2.2,2.2,0,0,0,1-.2v1.3a3.3,3.3,0,0,1-1.5.3,2.1,2.1,0,0,1-1.5-.5,2.5,2.5,0,0,1-.4-1.6V57.2h-.8v-.7l.9-.5.5-1.3h1V56h1.7v1.2h-1.7v2.9a.8.8,0,0,0,.2.6Z"/>
            <path class="cls-4" d="M397.6,62h-1.7V58.5a1.5,1.5,0,0,0-.2-1,.8.8,0,0,0-.7-.3c-.5,0-.8.1-1,.5a2.8,2.8,0,0,0-.3,1.5V62H392V56h1.3l.2.8h.1a1.6,1.6,0,0,1,.7-.7,2.2,2.2,0,0,1,1.1-.2,1.9,1.9,0,0,1,2.2,2.2Z"/>
            <path class="cls-4" d="M403.1,62l-.3-.8h0a1.8,1.8,0,0,1-.9.7,2,2,0,0,1-1.1.3,2,2,0,0,1-1.4-.5,2.5,2.5,0,0,1-.5-1.5,1.5,1.5,0,0,1,.7-1.4,3.4,3.4,0,0,1,2-.5h1.1V58c0-.6-.4-.9-1-.9a4.1,4.1,0,0,0-1.7.4l-.5-1.1a4.3,4.3,0,0,1,2.3-.5,2.9,2.9,0,0,1,1.9.5,2,2,0,0,1,.6,1.6v4Zm-.4-2.8H402l-1.1.2a.9.9,0,0,0-.3.7c0,.5.3.7.8.7a1.2,1.2,0,0,0,.9-.3,1.3,1.3,0,0,0,.4-.9Z"/>
            <path class="cls-4" d="M411.4,62h-1.6V58.5a2.5,2.5,0,0,0-.2-1,.9.9,0,0,0-.7-.3c-.5,0-.8.1-1,.5a4.9,4.9,0,0,0-.2,1.5V62H406V56h1.3l.2.8h.1a1.6,1.6,0,0,1,.7-.7,1.6,1.6,0,0,1,1-.2,2,2,0,0,1,1.9.9h.1a2.3,2.3,0,0,1,.7-.7,2.2,2.2,0,0,1,1.1-.2,2.1,2.1,0,0,1,1.6.5,2.6,2.6,0,0,1,.5,1.7V62h-1.7V58.5a1.5,1.5,0,0,0-.2-1c-.1-.2-.3-.3-.7-.3a1,1,0,0,0-.9.4,2.6,2.6,0,0,0-.3,1.4Z"/>
            <path class="cls-4" d="M419.6,62.2a3.1,3.1,0,0,1-3.1-3.1,3.5,3.5,0,0,1,.8-2.4,2.5,2.5,0,0,1,2.1-.8,2.6,2.6,0,0,1,2,.7,2.7,2.7,0,0,1,.7,2v.8h-3.9a1.6,1.6,0,0,0,.4,1.1,1.5,1.5,0,0,0,1.1.4h1.1l1-.4v1.3a1.7,1.7,0,0,1-1,.3Zm-.2-5.2a1.2,1.2,0,0,0-.8.4,1.9,1.9,0,0,0-.4.9h2.4a1,1,0,0,0-.4-.9A1,1,0,0,0,419.4,57Z"/>
          </g>
        </g>
        <g>
          <rect class="cls-3" x="17.5" y="385.2" width="312.6" height="27.73" rx="3"/>
          <g>
            <path class="cls-4" d="M23.4,378.1v-7.9H25v6.5h3.3v1.4Z"/>
            <path class="cls-4" d="M33.3,378.1l-.3-.8h0a2.8,2.8,0,0,1-.9.7,2,2,0,0,1-1.1.2,1.6,1.6,0,0,1-1.4-.5,2,2,0,0,1-.5-1.4,1.5,1.5,0,0,1,.7-1.4,3.4,3.4,0,0,1,2-.5h1.1v-.2c0-.6-.4-.9-1-.9a4.1,4.1,0,0,0-1.7.4l-.5-1.1a4.4,4.4,0,0,1,2.3-.6,2.9,2.9,0,0,1,1.9.6,2,2,0,0,1,.6,1.6v4Zm-.4-2.8h-.7a1.8,1.8,0,0,0-1.1.3.9.9,0,0,0-.3.7c0,.5.3.7.8.7a1.2,1.2,0,0,0,.9-.3,1.3,1.3,0,0,0,.4-.9Z"/>
            <path class="cls-4" d="M40.4,376.3a1.7,1.7,0,0,1-.6,1.4,2.8,2.8,0,0,1-2,.5H36.7l-.9-.2v-1.4l1.1.4h1c.6,0,.9-.2.9-.5a.4.4,0,0,0-.1-.3l-.4-.3-.8-.4-1-.5a1.3,1.3,0,0,1-.5-.6,1.9,1.9,0,0,1-.2-.8,1.3,1.3,0,0,1,.7-1.2,2.9,2.9,0,0,1,1.7-.5,5.4,5.4,0,0,1,2.2.5l-.5,1.2-.9-.3h-.8c-.5,0-.7.1-.7.4l.2.3a3,3,0,0,0,1,.5l1.1.6.5.5A2.2,2.2,0,0,1,40.4,376.3Z"/>
            <path class="cls-4" d="M44.3,376.9l1-.2v1.2a3.3,3.3,0,0,1-1.5.3c-.7,0-1.1-.1-1.4-.5a1.7,1.7,0,0,1-.5-1.5v-2.9h-.8v-.7l.9-.6.5-1.2h1.1v1.3h1.6v1.2H43.6v2.9c0,.3,0,.4.2.5S44.1,376.9,44.3,376.9Z"/>
            <path class="cls-4" d="M55,378.1H53.4v-3.5a1.3,1.3,0,0,0-.3-1,.8.8,0,0,0-.7-.3,1.1,1.1,0,0,0-1,.4,3.2,3.2,0,0,0-.3,1.6v2.8H49.4v-6h1.3l.2.7H51a1.2,1.2,0,0,1,.8-.6,2,2,0,0,1,1.1-.3,2.1,2.1,0,0,1,1.6.6,2.6,2.6,0,0,1,.5,1.7Z"/>
            <path class="cls-4" d="M60.6,378.1l-.4-.8h0a2.8,2.8,0,0,1-.9.7,1.8,1.8,0,0,1-1.1.2,1.7,1.7,0,0,1-1.4-.5,2,2,0,0,1-.5-1.4,1.5,1.5,0,0,1,.7-1.4,3.4,3.4,0,0,1,2-.5h1.1v-.2c0-.6-.3-.9-1-.9a4.1,4.1,0,0,0-1.7.4l-.5-1.1a4.4,4.4,0,0,1,2.3-.6,2.9,2.9,0,0,1,1.9.6,2,2,0,0,1,.6,1.6v4Zm-.5-2.8h-.7a1.5,1.5,0,0,0-1,.3.8.8,0,0,0-.4.7c0,.5.3.7.8.7a1.2,1.2,0,0,0,.9-.3,1,1,0,0,0,.4-.9Z"/>
            <path class="cls-4" d="M68.8,378.1H67.2v-3.5a2.2,2.2,0,0,0-.2-1,.9.9,0,0,0-.7-.3,1,1,0,0,0-.9.4,3.2,3.2,0,0,0-.3,1.6v2.8H63.4v-6h1.3l.2.7H65c.2-.2.4-.5.7-.6a2,2,0,0,1,1.1-.3,1.8,1.8,0,0,1,1.8.9h.1a2.9,2.9,0,0,1,1.8-.9,2.1,2.1,0,0,1,1.6.6,2.5,2.5,0,0,1,.5,1.7v3.9H71v-3.5a1.3,1.3,0,0,0-.3-1,.6.6,0,0,0-.6-.3,1.1,1.1,0,0,0-1,.4,2.4,2.4,0,0,0-.3,1.4Z"/>
            <path class="cls-4" d="M77.1,378.2a2.8,2.8,0,0,1-3.1-3.1,3.2,3.2,0,0,1,.7-2.3,2.6,2.6,0,0,1,2.1-.9,2.6,2.6,0,0,1,2,.8,2.6,2.6,0,0,1,.7,2v.8H75.6a1.8,1.8,0,0,0,.4,1.1,1.5,1.5,0,0,0,1.1.4h1.1l1-.4v1.3l-.9.3Zm-.3-5.1a.9.9,0,0,0-.8.4,1.2,1.2,0,0,0-.3.9H78a1.2,1.2,0,0,0-.3-.9A1,1,0,0,0,76.8,373.1Z"/>
          </g>
        </g>
        <g>
          <rect class="cls-3" x="17.5" y="450.2" width="312.6" height="27.73" rx="3"/>
          <g>
            <path class="cls-4" d="M27.9,443.1H23.4v-7.9h4.5v1.4H25v1.7h2.7v1.4H25v2h2.9Z"/>
            <path class="cls-4" d="M28.9,440.8v-1.3h2.9v1.3Z"/>
            <path class="cls-4" d="M38.4,443.1H36.8v-3.5a2.2,2.2,0,0,0-.2-1,.9.9,0,0,0-.7-.3c-.4,0-.8.1-.9.4a3,3,0,0,0-.3,1.6v2.8H33v-6h1.3l.2.7h.1a1.3,1.3,0,0,1,.7-.6,2,2,0,0,1,1.1-.3,1.8,1.8,0,0,1,1.8.9h.1a1.2,1.2,0,0,1,.8-.6,1.7,1.7,0,0,1,1-.3,2.1,2.1,0,0,1,1.6.6,2.5,2.5,0,0,1,.5,1.7v3.9H40.6v-3.5a1.3,1.3,0,0,0-.3-1c-.1-.2-.3-.3-.7-.3a1,1,0,0,0-.9.4,2.4,2.4,0,0,0-.3,1.4Z"/>
            <path class="cls-4" d="M47.8,443.1l-.4-.8h0a2.8,2.8,0,0,1-.9.7,1.8,1.8,0,0,1-1.1.2,1.6,1.6,0,0,1-1.4-.5,2,2,0,0,1-.5-1.4,1.5,1.5,0,0,1,.7-1.4,3.4,3.4,0,0,1,2-.5h1.1v-.2c0-.6-.3-.9-1-.9a4.1,4.1,0,0,0-1.7.4l-.5-1.1a4.4,4.4,0,0,1,2.3-.6,2.9,2.9,0,0,1,1.9.6,2,2,0,0,1,.6,1.6v4Zm-.5-2.8h-.7a1.5,1.5,0,0,0-1,.3.7.7,0,0,0-.4.7c0,.5.3.7.8.7a1.2,1.2,0,0,0,.9-.3,1,1,0,0,0,.4-.9Z"/>
            <path class="cls-4" d="M50.5,435.5c0-.6.3-.8.9-.8s.9.2.9.8a.7.7,0,0,1-.2.6l-.7.2C50.8,436.3,50.5,436,50.5,435.5Zm1.8,7.6H50.6v-6h1.7Z"/>
            <path class="cls-4" d="M55.7,443.1H54v-8.4h1.7Z"/>
          </g>
        </g>
        <g>
          <path class="cls-2" d="M373.6,285.5a3,3,0,0,1-1.1,2.4,5.1,5.1,0,0,1-3,.8,7.8,7.8,0,0,1-3.1-.6v-2.2l1.9.7,1.4.2a2.1,2.1,0,0,0,1.2-.3,1,1,0,0,0,.4-.9.8.8,0,0,0-.2-.5,1.2,1.2,0,0,0-.5-.5l-1.4-.8-1.6-.9a3.9,3.9,0,0,1-.8-1,2.8,2.8,0,0,1-.3-1.3,2.9,2.9,0,0,1,1-2.3,4.1,4.1,0,0,1,2.8-.9l1.6.2,1.6.6-.7,1.8-1.5-.5h-1.1a1.3,1.3,0,0,0-1,.3.9.9,0,0,0-.4.8.8.8,0,0,0,.2.5l.4.5,1.5.7a6.3,6.3,0,0,1,2.1,1.5A2.8,2.8,0,0,1,373.6,285.5Z"/>
          <path class="cls-2" d="M380,288.7a2.5,2.5,0,0,1-2.3-1.1h-.2c.1.7.2,1.1.2,1.3v3.4h-2.3V280.2h1.8l.4,1.1h.1A2.5,2.5,0,0,1,380,280a2.9,2.9,0,0,1,2.4,1.2,5.6,5.6,0,0,1,.8,3.2,5.9,5.9,0,0,1-.4,2.3,2.8,2.8,0,0,1-1.1,1.5A3.4,3.4,0,0,1,380,288.7Zm-.7-6.9a1.2,1.2,0,0,0-1.2.6,2.5,2.5,0,0,0-.4,1.7v.2a3.5,3.5,0,0,0,.4,2,1.3,1.3,0,0,0,1.2.6c1.1,0,1.6-.9,1.6-2.6a3,3,0,0,0-.4-1.8A1.5,1.5,0,0,0,379.3,281.8Z"/>
          <path class="cls-2" d="M392.7,284.4a4.3,4.3,0,0,1-1.1,3.2,4.1,4.1,0,0,1-3,1.1,4.6,4.6,0,0,1-2.1-.5,4,4,0,0,1-1.4-1.5,5.9,5.9,0,0,1-.5-2.3,4,4,0,0,1,1.1-3.2,3.8,3.8,0,0,1,3-1.2,4.6,4.6,0,0,1,2.1.5,3.6,3.6,0,0,1,1.4,1.6A4.1,4.1,0,0,1,392.7,284.4Zm-5.8,0a4,4,0,0,0,.4,1.8,1.5,1.5,0,0,0,1.4.7,1.4,1.4,0,0,0,1.3-.7,3,3,0,0,0,.4-1.8,3.2,3.2,0,0,0-.4-1.9,1.5,1.5,0,0,0-1.3-.6,1.6,1.6,0,0,0-1.4.6A4.1,4.1,0,0,0,386.9,284.4Z"/>
          <path class="cls-2" d="M400.6,288.6l-.3-1.1h-.2a2.2,2.2,0,0,1-1,.9,4,4,0,0,1-1.5.3,2.8,2.8,0,0,1-2.3-.8,3.2,3.2,0,0,1-.7-2.3v-5.4h2.3v4.9a2.3,2.3,0,0,0,.3,1.3,1.1,1.1,0,0,0,1,.5,1.4,1.4,0,0,0,1.4-.7,3.7,3.7,0,0,0,.4-2.1v-3.9h2.3v8.4Z"/>
          <path class="cls-2" d="M410.6,286.1a2.2,2.2,0,0,1-.9,1.9,4.1,4.1,0,0,1-2.7.7h-1.6l-1.2-.4v-1.9l1.5.5a3.6,3.6,0,0,0,1.4.2c.8,0,1.2-.2,1.2-.7s0-.3-.2-.4l-.5-.4-1.1-.5a5.8,5.8,0,0,1-1.4-.8,2.3,2.3,0,0,1-.7-.7,3.6,3.6,0,0,1-.2-1.1,2,2,0,0,1,.9-1.8,4.3,4.3,0,0,1,2.4-.6,6.6,6.6,0,0,1,3,.7l-.7,1.6-1.2-.4-1.1-.2c-.7,0-1,.2-1,.6s.1.3.3.5l1.4.7a5.3,5.3,0,0,1,1.5.7,2.7,2.7,0,0,1,.7.8A3.6,3.6,0,0,1,410.6,286.1Z"/>
          <path class="cls-2" d="M416.2,288.7a4.4,4.4,0,0,1-3.2-1.1,4.1,4.1,0,0,1-1.2-3.2,4.4,4.4,0,0,1,1.1-3.2,3.7,3.7,0,0,1,2.9-1.2,3.5,3.5,0,0,1,3.8,3.8v1.1h-5.4a1.8,1.8,0,0,0,2.1,2.1h1.4l1.4-.5v1.7l-1.3.5Zm-.4-7.1a1.4,1.4,0,0,0-1.1.5,2.5,2.5,0,0,0-.5,1.3h3.2a1.8,1.8,0,0,0-.4-1.3A1.7,1.7,0,0,0,415.8,281.6Z"/>
        </g>
        <g>
          <rect class="cls-3" x="365.7" y="324.9" width="312.6" height="27.73" rx="3"/>
          <g>
            <path class="cls-4" d="M373.3,317.8h-1.7v-8h4.5v1.4h-2.8v2.1h2.6v1.3h-2.6Z"/>
            <path class="cls-4" d="M377.5,310.1c0-.5.3-.8.9-.8s.9.3.9.8a.7.7,0,0,1-.9.8C377.8,310.9,377.5,310.7,377.5,310.1Zm1.7,7.7h-1.6v-6.1h1.6Z"/>
            <path class="cls-4" d="M384.3,311.6h.6v1.6h-.5a2.2,2.2,0,0,0-1.3.4,1.6,1.6,0,0,0-.4,1.2v3.1h-1.7v-6.1h1.3l.2,1h.1a3,3,0,0,1,.8-.8A1.9,1.9,0,0,1,384.3,311.6Z"/>
            <path class="cls-4" d="M390.2,316a1.7,1.7,0,0,1-.6,1.4,3.7,3.7,0,0,1-2,.5h-1.1l-.9-.3v-1.4l1.1.4,1,.2q.9,0,.9-.6c0-.1-.1-.2-.1-.3l-.4-.3-.8-.3-1.1-.6a1,1,0,0,1-.4-.5,1.9,1.9,0,0,1-.2-.8,1.5,1.5,0,0,1,.6-1.3,3.4,3.4,0,0,1,1.8-.4,3.8,3.8,0,0,1,2.1.5l-.4,1.2-.9-.4H388c-.5,0-.7.1-.7.4s0,.3.2.4l1,.5,1.1.5.5.6A1.9,1.9,0,0,1,390.2,316Z"/>
            <path class="cls-4" d="M394.1,316.5h1v1.2a3.3,3.3,0,0,1-1.5.3,2.1,2.1,0,0,1-1.5-.5,2.4,2.4,0,0,1-.4-1.5v-3h-.8v-.7l.9-.5.5-1.3h1v1.3H395v1.2h-1.7v3a.8.8,0,0,0,.2.5Z"/>
            <path class="cls-4" d="M404.8,317.8h-1.7v-3.6a1.6,1.6,0,0,0-.2-1,.8.8,0,0,0-.7-.3,1.1,1.1,0,0,0-1,.5,2.8,2.8,0,0,0-.3,1.5v2.9h-1.7v-6.1h1.3l.2.8h.1a2.3,2.3,0,0,1,.7-.7l1.1-.2a2.2,2.2,0,0,1,1.7.6,2.3,2.3,0,0,1,.5,1.6Z"/>
            <path class="cls-4" d="M410.3,317.8l-.3-.9h0a3.2,3.2,0,0,1-.9.8l-1.1.2a2,2,0,0,1-1.4-.5,2.3,2.3,0,0,1-.5-1.5,1.5,1.5,0,0,1,.7-1.4,4.4,4.4,0,0,1,2-.5h1.1v-.3c0-.6-.4-.9-1-.9a4.1,4.1,0,0,0-1.7.4l-.5-1.1a5.6,5.6,0,0,1,2.3-.5,3.6,3.6,0,0,1,1.9.5,2.1,2.1,0,0,1,.6,1.6v4.1Zm-.4-2.8h-.7l-1.1.2a1,1,0,0,0-.3.8.7.7,0,0,0,.8.7,1.4,1.4,0,0,0,1.3-1.3Z"/>
            <path class="cls-4" d="M418.6,317.8H417v-3.6a3,3,0,0,0-.2-1,.9.9,0,0,0-.7-.3,1.1,1.1,0,0,0-1,.5,4.9,4.9,0,0,0-.2,1.5v2.9h-1.7v-6.1h1.3l.2.8h.1a1.6,1.6,0,0,1,.7-.7l1-.2a2,2,0,0,1,1.9.9h.1a2.3,2.3,0,0,1,.7-.7l1.1-.2a2.5,2.5,0,0,1,1.6.5,2.6,2.6,0,0,1,.5,1.7v4h-1.7v-3.6a1.6,1.6,0,0,0-.2-1c-.1-.2-.3-.3-.7-.3a1.3,1.3,0,0,0-.9.4,2.6,2.6,0,0,0-.3,1.4Z"/>
            <path class="cls-4" d="M426.8,317.9a3.1,3.1,0,0,1-2.2-.8,3,3,0,0,1-.9-2.3,3.6,3.6,0,0,1,.8-2.4,2.9,2.9,0,0,1,2.1-.8,2.6,2.6,0,0,1,2,.7,2.7,2.7,0,0,1,.7,2v.8h-3.9a1.6,1.6,0,0,0,.4,1.1,1.5,1.5,0,0,0,1.1.4H428l1-.3v1.2l-1,.4Zm-.2-5.1a1.1,1.1,0,0,0-.8.3,1.9,1.9,0,0,0-.4.9h2.4a1.2,1.2,0,0,0-1.2-1.2Z"/>
          </g>
        </g>
        <g>
          <rect class="cls-3" x="365.7" y="385.2" width="312.6" height="27.73" rx="3"/>
          <g>
            <path class="cls-4" d="M371.6,378.1v-7.9h1.7v6.5h3.2v1.4Z"/>
            <path class="cls-4" d="M381.6,378.1l-.3-.8h-.1c-.3.3-.5.6-.8.7a2.2,2.2,0,0,1-1.2.2,1.7,1.7,0,0,1-1.4-.5,2,2,0,0,1-.5-1.4,1.7,1.7,0,0,1,.7-1.4,3.7,3.7,0,0,1,2-.5h1.1v-.2a.8.8,0,0,0-.9-.9,4.5,4.5,0,0,0-1.8.4l-.5-1.1a4.6,4.6,0,0,1,2.3-.6,2.7,2.7,0,0,1,1.9.6,2,2,0,0,1,.6,1.6v4Zm-.5-2.8h-.6a1.6,1.6,0,0,0-1.1.3,1,1,0,0,0-.4.7c0,.5.3.7.8.7a1.7,1.7,0,0,0,1-.3,1.2,1.2,0,0,0,.3-.9Z"/>
            <path class="cls-4" d="M388.7,376.3a1.5,1.5,0,0,1-.7,1.4,2.7,2.7,0,0,1-1.9.5H385l-.9-.2v-1.4l1,.4h1c.6,0,.9-.2.9-.5a.4.4,0,0,0-.1-.3l-.4-.3-.8-.4-1-.5-.5-.6a1.9,1.9,0,0,1-.1-.8,1.4,1.4,0,0,1,.6-1.2,3,3,0,0,1,1.8-.5,5.4,5.4,0,0,1,2.1.5l-.5,1.2-.8-.3h-.9c-.4,0-.7.1-.7.4l.3.3c.1.2.5.3,1,.5l1,.6.5.5A2.4,2.4,0,0,1,388.7,376.3Z"/>
            <path class="cls-4" d="M392.5,376.9l1.1-.2v1.2a4.1,4.1,0,0,1-1.6.3,1.6,1.6,0,0,1-1.4-.5,2.1,2.1,0,0,1-.5-1.5v-2.9h-.8v-.7l1-.6.4-1.2h1.1v1.3h1.7v1.2h-1.7v2.9a.6.6,0,0,0,.2.5C392.1,376.9,392.3,376.9,392.5,376.9Z"/>
            <path class="cls-4" d="M403.3,378.1h-1.7v-3.5a2.2,2.2,0,0,0-.2-1,1,1,0,0,0-.8-.3,1.2,1.2,0,0,0-1,.4,3.2,3.2,0,0,0-.3,1.6v2.8h-1.6v-6h1.2l.2.7h.1a1.6,1.6,0,0,1,.8-.6,2,2,0,0,1,1.1-.3,2.1,2.1,0,0,1,1.6.6,2.2,2.2,0,0,1,.6,1.7Z"/>
            <path class="cls-4" d="M408.8,378.1l-.3-.8h-.1a1.8,1.8,0,0,1-.8.7,2.2,2.2,0,0,1-1.2.2,1.4,1.4,0,0,1-1.3-.5,1.6,1.6,0,0,1-.5-1.4,1.7,1.7,0,0,1,.6-1.4,4.1,4.1,0,0,1,2.1-.5h1v-.2a.8.8,0,0,0-.9-.9,3.8,3.8,0,0,0-1.7.4l-.6-1.1a4.6,4.6,0,0,1,2.3-.6,2.5,2.5,0,0,1,1.9.6,2,2,0,0,1,.7,1.6v4Zm-.5-2.8h-.6a1.6,1.6,0,0,0-1.1.3.9.9,0,0,0-.3.7c0,.5.2.7.8.7l.9-.3a1.2,1.2,0,0,0,.3-.9Z"/>
            <path class="cls-4" d="M417.1,378.1h-1.7v-3.5c0-.5,0-.8-.2-1a.8.8,0,0,0-.7-.3,1,1,0,0,0-.9.4,3.2,3.2,0,0,0-.3,1.6v2.8h-1.6v-6h1.2l.2.7h.1c.2-.2.4-.5.7-.6a2,2,0,0,1,1.1-.3,1.8,1.8,0,0,1,1.8.9h.2a1.4,1.4,0,0,1,.7-.6,2,2,0,0,1,1.1-.3,1.8,1.8,0,0,1,1.5.6,2.1,2.1,0,0,1,.6,1.7v3.9h-1.7v-3.5a2.2,2.2,0,0,0-.2-1,.9.9,0,0,0-.7-.3,1,1,0,0,0-.9.4,2.4,2.4,0,0,0-.3,1.4Z"/>
            <path class="cls-4" d="M425.3,378.2a3,3,0,0,1-2.3-.8,3.2,3.2,0,0,1-.8-2.3,2.8,2.8,0,0,1,.8-2.3,2.6,2.6,0,0,1,2.1-.9,2.8,2.8,0,0,1,2,.8,3,3,0,0,1,.7,2v.8h-3.9a1.4,1.4,0,0,0,.4,1.1,1.2,1.2,0,0,0,1.1.4h1l1-.4v1.3l-.9.3Zm-.2-5.1a1,1,0,0,0-.9.4,1.2,1.2,0,0,0-.3.9h2.3a1.2,1.2,0,0,0-.3-.9A.9.9,0,0,0,425.1,373.1Z"/>
          </g>
        </g>
        <g>
          <rect class="cls-3" x="365.7" y="450.2" width="312.6" height="27.73" rx="3"/>
          <g>
            <path class="cls-4" d="M376.2,443.1h-4.6v-7.9h4.6v1.4h-2.9v1.7H376v1.4h-2.7v2h2.9Z"/>
            <path class="cls-4" d="M377.1,440.8v-1.3h3v1.3Z"/>
            <path class="cls-4" d="M386.7,443.1H385v-3.5c0-.5,0-.8-.2-1a.8.8,0,0,0-.7-.3,1,1,0,0,0-.9.4,3,3,0,0,0-.3,1.6v2.8h-1.6v-6h1.2l.2.7h.1a1.3,1.3,0,0,1,.7-.6,2,2,0,0,1,1.1-.3,1.8,1.8,0,0,1,1.8.9h.2a1.1,1.1,0,0,1,.7-.6,2,2,0,0,1,1.1-.3,1.8,1.8,0,0,1,1.5.6,2.1,2.1,0,0,1,.6,1.7v3.9h-1.7v-3.5a2.2,2.2,0,0,0-.2-1,.9.9,0,0,0-.7-.3,1,1,0,0,0-.9.4,2.4,2.4,0,0,0-.3,1.4Z"/>
            <path class="cls-4" d="M396,443.1l-.3-.8h-.1a1.8,1.8,0,0,1-.8.7,2.2,2.2,0,0,1-1.2.2,1.4,1.4,0,0,1-1.3-.5,1.6,1.6,0,0,1-.5-1.4,1.7,1.7,0,0,1,.6-1.4,4.1,4.1,0,0,1,2.1-.5h1v-.2a.8.8,0,0,0-.9-.9,3.8,3.8,0,0,0-1.7.4l-.6-1.1a4.6,4.6,0,0,1,2.3-.6,2.7,2.7,0,0,1,1.9.6,2,2,0,0,1,.7,1.6v4Zm-.5-2.8h-.6a1.6,1.6,0,0,0-1.1.3.8.8,0,0,0-.4.7c0,.5.3.7.9.7a1.6,1.6,0,0,0,.9-.3,1.2,1.2,0,0,0,.3-.9Z"/>
            <path class="cls-4" d="M398.8,435.5c0-.6.3-.8.9-.8s.9.2.9.8a1.4,1.4,0,0,1-.2.6l-.7.2C399.1,436.3,398.8,436,398.8,435.5Zm1.7,7.6h-1.6v-6h1.6Z"/>
            <path class="cls-4" d="M403.9,443.1h-1.7v-8.4h1.7Z"/>
          </g>
        </g>
        <g>
          <rect class="cls-3" x="360.1" y="132.2" width="312.6" height="27.73" rx="3"/>
          <g>
            <path class="cls-4" d="M369.3,118.5a1.8,1.8,0,0,0-1.5.7,3.7,3.7,0,0,0-.5,2c0,1.7.7,2.6,2,2.6a5.4,5.4,0,0,0,2-.4v1.4a4.8,4.8,0,0,1-2.2.4,3.3,3.3,0,0,1-2.6-1,4.5,4.5,0,0,1-.9-3,4.8,4.8,0,0,1,.4-2.2,3.5,3.5,0,0,1,3.3-1.9,6.4,6.4,0,0,1,2.3.5l-.5,1.4-.9-.4Z"/>
            <path class="cls-4" d="M372.8,117.5c0-.6.3-.8.9-.8s.9.2.9.8a1.4,1.4,0,0,1-.2.6l-.7.2C373.1,118.3,372.8,118,372.8,117.5Zm1.7,7.6h-1.6V119h1.6Z"/>
            <path class="cls-4" d="M378.8,123.9l1.1-.2v1.2a3.8,3.8,0,0,1-1.6.3,2,2,0,0,1-1.4-.5,2.1,2.1,0,0,1-.5-1.5v-2.9h-.7v-.7l.9-.6.4-1.2h1.1V119h1.7v1.3h-1.7v2.9a.8.8,0,0,0,.2.5Z"/>
            <path class="cls-4" d="M380.2,119H382l1.2,3.5c.1.3.1.6.2,1h0a3,3,0,0,1,.2-1l1.2-3.5h1.7l-2.5,6.9a3.9,3.9,0,0,1-1,1.4,3,3,0,0,1-1.6.5h-.8v-1.3h.7a1,1,0,0,0,.7-.2,2.2,2.2,0,0,0,.5-.8v-.3Z"/>
          </g>
        </g>
        <g>
          <rect class="cls-3" x="360.1" y="195.6" width="312.6" height="27.73" rx="3"/>
          <g>
            <path class="cls-4" d="M371.4,183a2.6,2.6,0,0,1-.8,2,3.7,3.7,0,0,1-2.3.6h-.7v2.9h-1.7v-8h2.6a3.6,3.6,0,0,1,2.2.7A2.1,2.1,0,0,1,371.4,183Zm-3.8,1.3h.6a1.6,1.6,0,0,0,1.1-.3,1,1,0,0,0,.4-.9,1.2,1.2,0,0,0-.3-.9,1.5,1.5,0,0,0-1-.3h-.8Z"/>
            <path class="cls-4" d="M378.3,185.4a3.2,3.2,0,0,1-.8,2.3,2.7,2.7,0,0,1-2.2.9,3.7,3.7,0,0,1-1.5-.4,2.1,2.1,0,0,1-1-1.1,3.1,3.1,0,0,1-.4-1.7,3.4,3.4,0,0,1,.8-2.3,2.9,2.9,0,0,1,2.2-.8,2.6,2.6,0,0,1,1.5.4,2.2,2.2,0,0,1,1,1.1A2.7,2.7,0,0,1,378.3,185.4Zm-4.2,0a2.6,2.6,0,0,0,.3,1.4,1.1,1.1,0,0,0,1,.4,1,1,0,0,0,.9-.4,2.6,2.6,0,0,0,.3-1.4,2.3,2.3,0,0,0-.3-1.3,1.1,1.1,0,0,0-1-.5,1.1,1.1,0,0,0-.9.5A2.3,2.3,0,0,0,374.1,185.4Z"/>
            <path class="cls-4" d="M383.9,186.7a1.5,1.5,0,0,1-.7,1.4,3.1,3.1,0,0,1-1.9.5h-1.1l-.9-.3v-1.3l1,.3,1,.2q.9,0,.9-.6a.4.4,0,0,0-.1-.3l-.4-.2a2.9,2.9,0,0,0-.8-.4l-1-.5-.5-.6a1.9,1.9,0,0,1-.1-.8,1.5,1.5,0,0,1,.6-1.3,3,3,0,0,1,1.8-.4,5.4,5.4,0,0,1,2.1.5l-.5,1.2-.8-.4h-.8c-.5,0-.8.2-.8.4s.1.3.3.4l1,.5,1,.5a1.3,1.3,0,0,1,.5.6A1.9,1.9,0,0,1,383.9,186.7Z"/>
            <path class="cls-4" d="M387.7,187.3l1.1-.2v1.2a3.8,3.8,0,0,1-1.6.3,2,2,0,0,1-1.4-.5,2.5,2.5,0,0,1-.5-1.5v-3h-.7V183l.9-.6.4-1.3H387v1.3h1.7v1.2H387v3a.8.8,0,0,0,.2.5Z"/>
            <path class="cls-4" d="M393.8,188.5l-.3-.9h0a3.2,3.2,0,0,1-.9.8l-1.1.2a2,2,0,0,1-1.4-.5,2.2,2.2,0,0,1-.5-1.4,1.6,1.6,0,0,1,.7-1.5,4.4,4.4,0,0,1,2-.5h1v-.3a.8.8,0,0,0-.9-.9,6.8,6.8,0,0,0-1.7.4l-.6-1.1a6,6,0,0,1,2.4-.5,3,3,0,0,1,1.8.5,1.9,1.9,0,0,1,.7,1.6v4.1Zm-.5-2.8h-.6l-1.1.2a1,1,0,0,0-.3.8c0,.4.2.7.8.7a1,1,0,0,0,.9-.4,1.1,1.1,0,0,0,.3-.8Z"/>
            <path class="cls-4" d="M398.3,188.5h-1.6V180h1.6Z"/>
            <path class="cls-4" d="M405.4,188.6c-1.9,0-2.8-1.1-2.8-3.1a3.1,3.1,0,0,1,.8-2.4,2.9,2.9,0,0,1,2.2-.8,4.1,4.1,0,0,1,1.9.4L407,184l-.8-.3h-.6c-.9,0-1.3.6-1.3,1.9s.4,1.7,1.3,1.7h.9l.8-.4v1.4l-.8.4Z"/>
            <path class="cls-4" d="M414.2,185.4a3.2,3.2,0,0,1-.8,2.3,2.8,2.8,0,0,1-2.2.9,3.3,3.3,0,0,1-1.5-.4,2.1,2.1,0,0,1-1-1.1,3.1,3.1,0,0,1-.4-1.7,3.4,3.4,0,0,1,.8-2.3,2.9,2.9,0,0,1,2.2-.8,2.8,2.8,0,0,1,1.5.4,2.2,2.2,0,0,1,1,1.1A2.7,2.7,0,0,1,414.2,185.4Zm-4.2,0a2.6,2.6,0,0,0,.3,1.4,1,1,0,0,0,.9.4,1.1,1.1,0,0,0,1-.4,2.6,2.6,0,0,0,.3-1.4,2.3,2.3,0,0,0-.3-1.3,1.1,1.1,0,0,0-1-.5,1.1,1.1,0,0,0-.9.5A2.3,2.3,0,0,0,410,185.4Z"/>
            <path class="cls-4" d="M417.5,188.6a1.9,1.9,0,0,1-1.7-.9,3.7,3.7,0,0,1-.6-2.3,4.1,4.1,0,0,1,.6-2.3,2.1,2.1,0,0,1,1.7-.8,1.9,1.9,0,0,1,1.7.9h.1a5.7,5.7,0,0,1-.1-1.2v-2h1.6v8.5h-1.2l-.4-.8h0A2,2,0,0,1,417.5,188.6Zm.5-1.3a1.3,1.3,0,0,0,1-.4,2.3,2.3,0,0,0,.3-1.3h0a2.2,2.2,0,0,0-.3-1.4,1.1,1.1,0,0,0-1-.5.9.9,0,0,0-.8.5,2,2,0,0,0-.4,1.4,2.2,2.2,0,0,0,.4,1.3A1,1,0,0,0,418,187.3Z"/>
            <path class="cls-4" d="M425.3,188.6a2.8,2.8,0,0,1-3.1-3.1,3.6,3.6,0,0,1,.8-2.4,2.9,2.9,0,0,1,2.1-.8,2.7,2.7,0,0,1,2,.7,3.2,3.2,0,0,1,.7,2v.9h-3.9a1.5,1.5,0,0,0,.4,1.1,1.6,1.6,0,0,0,1.1.3h1l1-.3v1.2l-.9.4Zm-.2-5.1c-.4,0-.7.1-.8.3a1.3,1.3,0,0,0-.4,1h2.3a1.3,1.3,0,0,0-.3-1A1.1,1.1,0,0,0,425.1,183.5Z"/>
          </g>
        </g>
        <circle class="cls-5" cx="173.5" cy="81.4" r="16.5"/>
        <circle class="cls-5" cx="173.5" cy="144.5" r="16.5"/>
        <circle class="cls-5" cx="173.5" cy="207.8" r="16.5"/>
        <circle class="cls-5" cx="173.5" cy="336.7" r="16.5"/>
        <circle class="cls-5" cx="173.5" cy="397.4" r="16.5"/>
        <circle class="cls-5" cx="173.5" cy="463" r="16.5"/>
        <circle class="cls-5" cx="517.8" cy="81.4" r="16.5"/>
        <circle class="cls-5" cx="517.8" cy="144.5" r="16.5"/>
        <circle class="cls-5" cx="517.8" cy="207.8" r="16.5"/>
        <circle class="cls-5" cx="517.8" cy="336.7" r="16.5"/>
        <circle class="cls-5" cx="517.8" cy="397.4" r="16.5"/>
        <circle class="cls-5" cx="517.8" cy="463" r="16.5"/>
        <path class="cls-1" d="M176.3,89.3H173V77.1l-1.2,1.1-1.8,1.5-1.6-2,5.1-4.1h2.7Z"/>
        <path class="cls-1" d="M178.5,140.3a3.7,3.7,0,0,1-.9,2.5,4.1,4.1,0,0,1-2.5,1.4h0a4.8,4.8,0,0,1,2.9,1.1,3.5,3.5,0,0,1,.9,2.5,4.1,4.1,0,0,1-1.6,3.5,7.3,7.3,0,0,1-4.7,1.3,12.5,12.5,0,0,1-4.5-.8V149l2,.8a7.8,7.8,0,0,0,2.2.3,4,4,0,0,0,2.4-.6,2.2,2.2,0,0,0,.8-1.8,1.8,1.8,0,0,0-.9-1.6,7.1,7.1,0,0,0-2.9-.4h-1.2v-2.6h1.2a6.4,6.4,0,0,0,2.7-.4,2,2,0,0,0,.8-1.7c0-1.2-.7-1.8-2.2-1.8a4.5,4.5,0,0,0-1.6.3l-1.8.9-1.5-2.3a8.5,8.5,0,0,1,5.1-1.5,7.5,7.5,0,0,1,3.9.9A3.4,3.4,0,0,1,178.5,140.3Z"/>
        <path class="cls-1" d="M173.8,205.6a4.9,4.9,0,0,1,3.7,1.3,4.5,4.5,0,0,1,1.3,3.5,4.9,4.9,0,0,1-1.6,4,6.6,6.6,0,0,1-4.7,1.4,8.8,8.8,0,0,1-4.2-.8v-2.9a9.3,9.3,0,0,0,2,.8l2.1.3c2.1,0,3.1-.9,3.1-2.5s-1.1-2.4-3.2-2.4h-1.2l-1.2.2-1.3-.7.6-8h8.5v2.8h-5.6l-.3,3.1h.4Z"/>
        <path class="cls-1" d="M176.3,344.1H173V331.9c-.6.5-.9.9-1.2,1l-1.8,1.5-1.6-2,5.1-4h2.7Z"/>
        <path class="cls-1" d="M179.1,403.9h-11v-2.3l4-4a25.3,25.3,0,0,0,2.2-2.5,2.8,2.8,0,0,0,.8-1.2,2.8,2.8,0,0,0,.3-1.3,1.7,1.7,0,0,0-.6-1.4,2,2,0,0,0-1.4-.4,3.3,3.3,0,0,0-1.7.4,9.4,9.4,0,0,0-1.8,1.2l-1.8-2.2,1.9-1.4,1.7-.6,2-.2a7.1,7.1,0,0,1,2.6.5A5,5,0,0,1,178,390a4.4,4.4,0,0,1,.7,2.2,7.1,7.1,0,0,1-.4,2.1,10,10,0,0,1-1.2,1.9,33,33,0,0,1-2.8,2.9l-2,1.9h6.8Z"/>
        <path class="cls-1" d="M178.5,457.3a3.7,3.7,0,0,1-.9,2.5,4.1,4.1,0,0,1-2.5,1.4h0a4.8,4.8,0,0,1,2.9,1.1,3.5,3.5,0,0,1,.9,2.5,4.1,4.1,0,0,1-1.6,3.5,7.3,7.3,0,0,1-4.7,1.3,10.6,10.6,0,0,1-4.5-.9V466l2,.8a7.8,7.8,0,0,0,2.2.3,4,4,0,0,0,2.4-.6,2.2,2.2,0,0,0,.8-1.8,1.7,1.7,0,0,0-.9-1.6,7.1,7.1,0,0,0-2.9-.4h-1.2v-2.6h1.2a6.4,6.4,0,0,0,2.7-.4,2,2,0,0,0,.8-1.7c0-1.2-.7-1.8-2.2-1.8a4.5,4.5,0,0,0-1.6.3l-1.8.9-1.5-2.3a8.6,8.6,0,0,1,5.1-1.6,7.5,7.5,0,0,1,3.9,1A3.4,3.4,0,0,1,178.5,457.3Z"/>
        <path class="cls-1" d="M523.4,89.3h-11V87l3.9-4,2.3-2.4a6.6,6.6,0,0,0,.8-1.3,5.1,5.1,0,0,0,.2-1.3,1.6,1.6,0,0,0-.5-1.4,2,2,0,0,0-1.4-.4,3.9,3.9,0,0,0-1.8.4l-1.8,1.2-1.8-2.1a8.2,8.2,0,0,1,2-1.4l1.6-.7,2-.2a6.7,6.7,0,0,1,2.6.5,4.5,4.5,0,0,1,1.8,1.5,4.4,4.4,0,0,1,.6,2.3,4.5,4.5,0,0,1-.4,2,6.2,6.2,0,0,1-1.1,1.9,25.7,25.7,0,0,1-2.9,2.9l-2,1.9h6.9Z"/>
        <path class="cls-1" d="M523.7,149.2h-1.9v3.3h-3.2v-3.3h-6.7v-2.3l6.9-10.1h3v9.9h1.9Zm-5.1-2.5v-4.6a13.6,13.6,0,0,0,.1-1.5h-.1a7,7,0,0,1-.9,1.7l-2.9,4.4Z"/>
        <path class="cls-1" d="M512.3,209c0-3.1.6-5.5,1.9-7a7.7,7.7,0,0,1,6-2.3l2.1.2v2.7l-1.9-.3a5.5,5.5,0,0,0-2.8.6,2.9,2.9,0,0,0-1.6,1.5,6.8,6.8,0,0,0-.7,2.9h.2a3.5,3.5,0,0,1,3.4-1.9,4.5,4.5,0,0,1,3.3,1.3,6.2,6.2,0,0,1-.3,7.7,4.9,4.9,0,0,1-3.9,1.4,5,5,0,0,1-3-.8,4.5,4.5,0,0,1-2-2.3A8.4,8.4,0,0,1,512.3,209Zm5.6,4.2a1.9,1.9,0,0,0,1.7-.7,3.3,3.3,0,0,0,.6-2.1,2.8,2.8,0,0,0-.6-1.8,2,2,0,0,0-1.6-.6,2.5,2.5,0,0,0-1.7.6,2.1,2.1,0,0,0-.7,1.6,3.7,3.7,0,0,0,.6,2.1A2.2,2.2,0,0,0,517.9,213.2Z"/>
        <path class="cls-1" d="M523.7,340.8h-1.9v3.3h-3.2v-3.3h-6.7v-2.3l6.9-10.1h3v9.8h1.9Zm-5.1-2.6v-4.6a11.3,11.3,0,0,0,.1-1.4h-.1a7,7,0,0,1-.9,1.7l-2.9,4.3Z"/>
        <path class="cls-1" d="M518.1,394.9a4.8,4.8,0,0,1,3.6,1.3,4.5,4.5,0,0,1,1.4,3.5,5.3,5.3,0,0,1-1.6,4,6.8,6.8,0,0,1-4.7,1.4,8.8,8.8,0,0,1-4.2-.8v-2.9a7.6,7.6,0,0,0,2,.8l2.1.2c2,0,3-.8,3-2.5s-1-2.3-3.1-2.3h-1.3l-1.1.2-1.3-.7.6-8H522V392h-5.6l-.3,3.1h2Z"/>
        <path class="cls-1" d="M512.3,462.8c0-3.1.6-5.4,1.9-6.9a7.7,7.7,0,0,1,6-2.3,6.8,6.8,0,0,1,2.1.2v2.6l-1.9-.2a7,7,0,0,0-2.8.5,3.9,3.9,0,0,0-1.6,1.5,7.3,7.3,0,0,0-.7,2.9h.2a3.6,3.6,0,0,1,3.4-1.8,4.2,4.2,0,0,1,3.3,1.3,6,6,0,0,1-.3,7.6,5,5,0,0,1-3.9,1.5,5.8,5.8,0,0,1-3-.8,4.4,4.4,0,0,1-2-2.4A8.2,8.2,0,0,1,512.3,462.8Zm5.6,4.2a1.9,1.9,0,0,0,1.7-.7,2.8,2.8,0,0,0,.6-2,2.4,2.4,0,0,0-.6-1.8,1.8,1.8,0,0,0-1.6-.7,2.2,2.2,0,0,0-1.7.7,1.8,1.8,0,0,0-.7,1.5,3.8,3.8,0,0,0,.6,2.2A2.5,2.5,0,0,0,517.9,467Z"/>
        <g>
          <line class="cls-6" x1="198.7" y1="79" x2="480.6" y2="79"/>
          <polygon class="cls-5" points="478.9 84.8 489 79 478.9 73.1 478.9 84.8"/>
        </g>
        <g>
          <line class="cls-6" x1="173.5" y1="356.4" x2="173.5" y2="370.8"/>
          <polygon class="cls-5" points="167.7 369.1 173.5 379.2 179.3 369.1 167.7 369.1"/>
        </g>
        <g>
          <line class="cls-6" x1="173.5" y1="418.9" x2="173.5" y2="433.4"/>
          <polygon class="cls-5" points="167.7 431.7 173.5 441.8 179.3 431.7 167.7 431.7"/>
        </g>
        <g>
          <line class="cls-6" x1="516.3" y1="356.4" x2="516.3" y2="370.8"/>
          <polygon class="cls-5" points="510.5 369.1 516.3 379.2 522.2 369.1 510.5 369.1"/>
        </g>
        <g>
          <line class="cls-6" x1="516.3" y1="418.9" x2="516.3" y2="433.4"/>
          <polygon class="cls-5" points="510.5 431.7 516.3 441.8 522.2 431.7 510.5 431.7"/>
        </g>
        <g>
          <line class="cls-6" x1="484.6" y1="88.3" x2="206.9" y2="137.2"/>
          <polygon class="cls-5" points="207.6 131.2 198.7 138.7 209.6 142.7 207.6 131.2"/>
        </g>
        <g>
          <line class="cls-6" x1="484.6" y1="156.8" x2="206.9" y2="205.8"/>
          <polygon class="cls-5" points="207.6 199.7 198.7 207.2 209.6 211.2 207.6 199.7"/>
        </g>
        <g>
          <line class="cls-6" x1="201.9" y1="462.1" x2="482.1" y2="343.2"/>
          <polygon class="cls-5" points="482.8 349.3 489.8 340 478.2 338.5 482.8 349.3"/>
        </g>
        <g>
          <line class="cls-6" x1="199.5" y1="147.3" x2="481.4" y2="147.3"/>
          <polygon class="cls-5" points="479.7 153.1 489.8 147.3 479.7 141.5 479.7 153.1"/>
        </g>
        <g>
          <line class="cls-6" x1="198.7" y1="215.9" x2="480.6" y2="215.9"/>
          <polygon class="cls-5" points="478.9 221.7 489 215.9 478.9 210 478.9 221.7"/>
        </g>
      </g>
    </g>
  </g>
</svg>
